<svg width="34" height="34" viewBox="0 0 34 34" fill="none" xmlns="http://www.w3.org/2000/svg">
<mask id="mask0_39_184" style="mask-type:alpha" maskUnits="userSpaceOnUse" x="0" y="0" width="34" height="34">
<rect width="34" height="34" fill="#D9D9D9"/>
</mask>
<g mask="url(#mask0_39_184)">
<path d="M8.28754 24.225C9.49171 23.3042 10.8375 22.5782 12.325 22.0469C13.8125 21.5157 15.3709 21.25 17 21.25C18.6292 21.25 20.1875 21.5157 21.675 22.0469C23.1625 22.5782 24.5084 23.3042 25.7125 24.225C26.5389 23.257 27.1823 22.1591 27.6428 20.9313C28.1032 19.7035 28.3334 18.3931 28.3334 17C28.3334 13.8598 27.2296 11.1858 25.0219 8.97817C22.8143 6.77053 20.1403 5.66671 17 5.66671C13.8598 5.66671 11.1858 6.77053 8.97817 8.97817C6.77053 11.1858 5.66671 13.8598 5.66671 17C5.66671 18.3931 5.89692 19.7035 6.35733 20.9313C6.81775 22.1591 7.46115 23.257 8.28754 24.225ZM17 18.4167C15.607 18.4167 14.4323 17.9386 13.4761 16.9823C12.5198 16.0261 12.0417 14.8514 12.0417 13.4584C12.0417 12.0653 12.5198 10.8907 13.4761 9.93442C14.4323 8.97817 15.607 8.50004 17 8.50004C18.3931 8.50004 19.5678 8.97817 20.524 9.93442C21.4802 10.8907 21.9584 12.0653 21.9584 13.4584C21.9584 14.8514 21.4802 16.0261 20.524 16.9823C19.5678 17.9386 18.3931 18.4167 17 18.4167ZM17 31.1667C15.0403 31.1667 13.1987 30.7948 11.475 30.0511C9.75143 29.3073 8.25212 28.298 6.97712 27.023C5.70212 25.748 4.69275 24.2487 3.949 22.525C3.20525 20.8014 2.83337 18.9598 2.83337 17C2.83337 15.0403 3.20525 13.1987 3.949 11.475C4.69275 9.75143 5.70212 8.25212 6.97712 6.97712C8.25212 5.70212 9.75143 4.69275 11.475 3.949C13.1987 3.20525 15.0403 2.83337 17 2.83337C18.9598 2.83337 20.8014 3.20525 22.525 3.949C24.2487 4.69275 25.748 5.70212 27.023 6.97712C28.298 8.25212 29.3073 9.75143 30.0511 11.475C30.7948 13.1987 31.1667 15.0403 31.1667 17C31.1667 18.9598 30.7948 20.8014 30.0511 22.525C29.3073 24.2487 28.298 25.748 27.023 27.023C25.748 28.298 24.2487 29.3073 22.525 30.0511C20.8014 30.7948 18.9598 31.1667 17 31.1667ZM17 28.3334C18.2514 28.3334 19.432 28.1504 20.5417 27.7844C21.6514 27.4184 22.6667 26.8931 23.5875 26.2084C22.6667 25.5237 21.6514 24.9983 20.5417 24.6323C19.432 24.2664 18.2514 24.0834 17 24.0834C15.7487 24.0834 14.5681 24.2664 13.4584 24.6323C12.3487 24.9983 11.3334 25.5237 10.4125 26.2084C11.3334 26.8931 12.3487 27.4184 13.4584 27.7844C14.5681 28.1504 15.7487 28.3334 17 28.3334ZM17 15.5834C17.6139 15.5834 18.1216 15.3827 18.523 14.9813C18.9243 14.5799 19.125 14.0723 19.125 13.4584C19.125 12.8445 18.9243 12.3368 18.523 11.9355C18.1216 11.5341 17.6139 11.3334 17 11.3334C16.3862 11.3334 15.8785 11.5341 15.4771 11.9355C15.0757 12.3368 14.875 12.8445 14.875 13.4584C14.875 14.0723 15.0757 14.5799 15.4771 14.9813C15.8785 15.3827 16.3862 15.5834 17 15.5834Z" fill="white"/>
</g>
</svg>
