<svg width="24" height="24" viewBox="0 0 24 24" fill="none" xmlns="http://www.w3.org/2000/svg">
<mask id="mask0_36_15" style="mask-type:alpha" maskUnits="userSpaceOnUse" x="0" y="0" width="24" height="24">
<rect width="24" height="24" fill="#D9D9D9"/>
</mask>
<g mask="url(#mask0_36_15)">
<path d="M12 22C10.75 22 9.57931 21.7626 8.48798 21.288C7.39598 20.8126 6.44598 20.1706 5.63798 19.362C4.82931 18.554 4.18731 17.604 3.71198 16.512C3.23731 15.4206 2.99998 14.25 2.99998 13C2.99998 11.75 3.23731 10.579 3.71198 9.48698C4.18731 8.39564 4.82931 7.44564 5.63798 6.63698C6.44598 5.82898 7.39598 5.18764 8.48798 4.71298C9.57931 4.23764 10.75 3.99998 12 3.99998C13.25 3.99998 14.421 4.23764 15.513 4.71298C16.6043 5.18764 17.5543 5.82898 18.363 6.63698C19.171 7.44564 19.8126 8.39564 20.288 9.48698C20.7626 10.579 21 11.75 21 13C21 14.25 20.7626 15.4206 20.288 16.512C19.8126 17.604 19.171 18.554 18.363 19.362C17.5543 20.1706 16.6043 20.8126 15.513 21.288C14.421 21.7626 13.25 22 12 22ZM14.8 17.2L16.2 15.8L13 12.6V7.99998H11V13.4L14.8 17.2ZM5.59998 2.34998L6.99998 3.74998L2.74998 7.99998L1.34998 6.59998L5.59998 2.34998ZM18.4 2.34998L22.65 6.59998L21.25 7.99998L17 3.74998L18.4 2.34998ZM12 20C13.95 20 15.604 19.3206 16.962 17.962C18.3206 16.604 19 14.95 19 13C19 11.05 18.3206 9.39564 16.962 8.03698C15.604 6.67898 13.95 5.99998 12 5.99998C10.05 5.99998 8.39598 6.67898 7.03798 8.03698C5.67931 9.39564 4.99998 11.05 4.99998 13C4.99998 14.95 5.67931 16.604 7.03798 17.962C8.39598 19.3206 10.05 20 12 20Z" fill="white"/>
</g>
</svg>
