<svg width="26" height="24" viewBox="0 0 26 24" fill="none" xmlns="http://www.w3.org/2000/svg">
<path d="M0.5 23.25V0.75H13V5.75H25.5V23.25H0.5ZM3 20.75H5.5V18.25H3V20.75ZM3 15.75H5.5V13.25H3V15.75ZM3 10.75H5.5V8.25H3V10.75ZM3 5.75H5.5V3.25H3V5.75ZM8 20.75H10.5V18.25H8V20.75ZM8 15.75H10.5V13.25H8V15.75ZM8 10.75H10.5V8.25H8V10.75ZM8 5.75H10.5V3.25H8V5.75ZM13 20.75H23V8.25H13V10.75H15.5V13.25H13V15.75H15.5V18.25H13V20.75ZM18 13.25V10.75H20.5V13.25H18ZM18 18.25V15.75H20.5V18.25H18Z" fill="white"/>
</svg>
